# xmcd
#
# Track frame offsets: 
#        150
#        12865
#        29159
#        50369
#        64910
#        80363
#        94125
#        111444
#        127246
#        150459
#        162156
#
# Disc length: 2354 seconds
#
# Revision: 0
# Processed by: cddbd v1.5.2PL0 Copyright (c) Steve Scherf et al.
# Submitted via: ExactAudioCopy v1.0b4
#
DISCID=9009300b
DTITLE=The Beat Daddys - Hoodoo That We Doo
DYEAR=2015
DGENRE=Blues, Electric Blues
TTITLE0=These Chains
TTITLE1=Sorry
TTITLE2=You Made Me Cry
TTITLE3=The Moment
TTITLE4=Pie or Cake
TTITLE5=Hoodoo Woman
TTITLE6=DUI Love
TTITLE7=Been Thinkin'
TTITLE8=Lord My Luck
TTITLE9=The Blues Can Heal Ya
TTITLE10=I Need A Woman
EXTD=
EXTT0=
EXTT1=
EXTT2=
EXTT3=
EXTT4=
EXTT5=
EXTT6=
EXTT7=
EXTT8=
EXTT9=
EXTT10=
PLAYORDER=
